<?xml version="1.0" encoding="utf-8"?>
<!-- Generator: Adobe Illustrator 26.5.0, SVG Export Plug-In . SVG Version: 6.00 Build 0)  -->
<svg version="1.1" id="Layer_1" xmlns="http://www.w3.org/2000/svg" xmlns:xlink="http://www.w3.org/1999/xlink" x="0px" y="0px"
	 viewBox="0 0 130 20" style="enable-background:new 0 0 130 20;" xml:space="preserve">
<style type="text/css">
	.st0{fill:#E53012;}
	.st1{fill:#FFFFFF;}
</style>
<g>
	<path d="M10.8,8.3C9,9,8,11,8.6,12.9s2.6,2.8,4.5,2.2c0.3-0.1,0.6-0.3,0.9-0.5l7.5,3.5c0,0-0.3,0.5-0.5,0.8c-0.5,0.7-1.4,1.1-2.3,1   H5.2c-1,0.1-1.9-0.4-2.5-1.3c-1.5-2-2.3-4.4-2.3-6.9C0.5,5.3,5.6,0.1,12,0.1c3.1,0,6.1,1.3,8.2,3.6l-6.8,4.8   C12.6,8.1,11.7,8,10.8,8.3z M11.7,9.4c-1.3,0.1-2.2,1.2-2.1,2.5c0.1,1.3,1.2,2.2,2.5,2.1c1.3-0.1,2.2-1.2,2.1-2.5   C14.1,10.2,13,9.3,11.7,9.4C11.8,9.4,11.7,9.4,11.7,9.4z M50.5,0.1h-1.8v19.8h3.7v-6c0-0.4,0.3-0.7,0.6-0.8c0.5,0,1,0.5,1.6,1.4   l2.9,5.4h4.9l-5.6-9.7l5.6-6.1h-4.9l-5,5.8V2.1C52.4,1,51.6,0.1,50.5,0.1z M79.3,19.9L75.1,4H79l2.4,11l2-9.5   c0.2-0.9,1-1.5,1.9-1.4h2.3L89.7,15l2.2-9.5c0.2-0.9,1-1.5,1.9-1.4h2.6l-4.3,15.8H88l-2.2-11l-2.4,11L79.3,19.9z M100.3,8.2h-3.8   c0.1-1.1,0.7-2.2,1.6-2.9c1.3-0.9,2.7-1.3,4.3-1.3c1.7,0,3.3,0.3,4.7,1.1c1.1,0.7,1.7,1.9,1.7,3.2v5.2c0.1,1.2-0.2,2.5-0.8,3.6   c-0.5,0.8-1.2,1.4-2,1.9c-0.8,0.4-1.6,0.7-2.5,0.8c-0.8,0.1-1.6,0.1-2.3,0.1c-1.3,0-2.5-0.4-3.6-1.1c-1.1-0.9-1.5-2.1-1.5-3.7   c0-1.6,0.4-2.6,1.4-3.4c1.1-0.7,2.3-1.2,3.5-1.4c0.2,0,1.2-0.2,1.6-0.2c1.7-0.2,2.5-0.7,2.5-1.5c0-0.5-0.4-1-0.9-1.1   c-1-0.3-2-0.3-3,0C100.9,7.6,100.5,7.9,100.3,8.2L100.3,8.2z M105.2,11.9c-0.7,0.3-1.4,0.6-2.2,0.7l-1.3,0.3   c-0.5,0.1-1.9,0.4-1.9,2c0,0.5,0.2,1,0.5,1.4c0.4,0.3,0.9,0.5,1.5,0.5c1,0,1.8-0.3,2.5-0.9c0.6-0.7,1-1.6,0.9-2.5L105.2,11.9z    M114.1,19.9h-3.7V0.1h1.8c0.5,0,1,0.2,1.4,0.5c0.4,0.3,0.6,0.8,0.6,1.3L114.1,19.9z M43.2,3.4V0.1h2c0.9,0,1.8,0.5,1.8,1.4   c0,0.3,0,2,0,2L43.2,3.4z M45.2,5c0.9,0,1.7,0.5,1.8,1.4c0,0.2,0,13.5,0,13.5h-3.8V5H45.2z M42,12.2c0,5.1-2.3,7.6-7,7.7   c-4.7,0-7-2.2-7-6.8V0.2h1.8c0.5,0,1,0.2,1.4,0.5c0.4,0.3,0.6,0.8,0.6,1.4v4.5c0.9-1.5,2.6-2.4,4.3-2.4C40,4.4,42,7,42,12.2   L42,12.2z M38.1,12C38,9.1,37,7.6,35,7.6s-3.1,1.4-3.2,4.4c-0.1,2.9,1,4.6,3.1,4.6S38.1,15.1,38.1,12z"/>
	<path class="st0" d="M21.2,4.7l-6.5,4.6c0.5,0.6,0.8,1.3,0.9,2.1c0.1,0.7-0.1,1.4-0.5,2l7.2,3.4c1-1.9,1.4-4,1.2-6.1   C23.2,8.6,22.5,6.5,21.2,4.7z"/>
	<path d="M122.5,19.9c1.8,0,3.2-0.4,4.4-1.3c1.2-0.8,2-2.1,2.4-3.7h-2.8c-0.5,0-0.8,0.1-1,0.3c-0.3,0.3-0.9,1.4-2.7,1.4   c-1,0-1.7-0.3-2.2-0.9c-0.5-0.6-0.8-1.5-0.8-2.6h9.8c0-0.1,0.1-1,0.1-1c0-2.5-0.6-4.5-1.8-5.9c-1.2-1.4-3-2.1-5.3-2.1   c-2.1,0-3.8,0.7-5,2.1c-1.2,1.4-1.8,3.3-1.8,5.7c0,2.6,0.6,4.5,1.8,5.9C118.7,19.2,120.3,19.9,122.5,19.9z M120.5,8.2   c0.5-0.5,1.2-0.8,2-0.8c0.9,0,1.6,0.3,2.1,0.8c0.5,0.5,0.7,1.3,0.8,2.3h-5.8C119.7,9.5,120,8.7,120.5,8.2z"/>
	<path d="M68.1,19.9c1.8,0,3.2-0.4,4.4-1.3c1.2-0.8,2-2.1,2.4-3.7h-2.8c-0.5,0-0.8,0.1-1,0.3c-0.3,0.3-0.9,1.4-2.7,1.4   c-1,0-1.7-0.3-2.2-0.9c-0.5-0.6-0.8-1.5-0.8-2.6h9.8c0-0.1,0.1-1,0.1-1c0-2.5-0.6-4.5-1.8-5.9c-1.2-1.4-3-2.1-5.3-2.1   c-2.1,0-3.8,0.7-5,2.1c-1.2,1.4-1.8,3.3-1.8,5.7c0,2.6,0.6,4.5,1.8,5.9C64.3,19.2,66,19.9,68.1,19.9z M66.2,8.2   c0.5-0.5,1.2-0.8,2-0.8c0.9,0,1.6,0.3,2.1,0.8c0.5,0.5,0.7,1.3,0.8,2.3h-5.8C65.4,9.5,65.6,8.7,66.2,8.2z"/>
</g>
</svg>
